<svg xmlns="http://www.w3.org/2000/svg" viewBox="0 0 64 64.04"><defs><style>.cls-1{fill:#65da63;}.cls-2{fill:#fddb00;}</style></defs><g id="Layer_2" data-name="Layer 2"><g id="Layer_1-2" data-name="Layer 1"><path class="cls-1" d="M32,0a32,32,0,0,0,0,64H62.58A1.43,1.43,0,0,0,64,62.62V32A32,32,0,0,0,32,0Zm0,60.17a28,28,0,1,1,28-28A28,28,0,0,1,32,60.17Z"/><path class="cls-2" d="M31,35.64V57.43a1.07,1.07,0,0,1-1.14,1.08,25.35,25.35,0,0,1-16.08-6.66,1.08,1.08,0,0,1,0-1.56L29.2,34.87C30.21,33.86,31,34.21,31,35.64Z"/><path class="cls-2" d="M33.76,34.64,49.22,50.1a1,1,0,0,1,0,1.48A25.45,25.45,0,0,1,33,58.28a1,1,0,0,1-1.08-1V35.4C31.92,34,32.75,33.63,33.76,34.64Z"/><path class="cls-2" d="M35.48,31.2h21.8a1.07,1.07,0,0,0,1.07-1.14A25.39,25.39,0,0,0,51.7,14a1.1,1.1,0,0,0-1.57,0L34.72,29.36C33.7,30.37,34.05,31.2,35.48,31.2Z"/><path class="cls-2" d="M34.48,33.92,49.89,49.33a1.08,1.08,0,0,0,1.57,0,25.41,25.41,0,0,0,6.66-16.07A1.08,1.08,0,0,0,57,32.08H35.24C33.81,32.08,33.47,32.9,34.48,33.92Z"/></g></g></svg>